<?xml version="1.0" standalone="no"?>
<!DOCTYPE svg PUBLIC "-//W3C//DTD SVG 20010904//EN"
 "http://www.w3.org/TR/2001/REC-SVG-20010904/DTD/svg10.dtd">
<svg version="1.0" xmlns="http://www.w3.org/2000/svg"
 width="1440.000000pt" height="280.000000pt" viewBox="0 0 1440.000000 280.000000"
 preserveAspectRatio="xMidYMid meet">

<g transform="translate(0.000000,280.000000) scale(0.100000,-0.100000)"
fill="#000000" stroke="none">
<path d="M0 1400 l0 -1400 5271 0 5272 0 -7 545 c-5 357 -4 550 2 558 6 7 20
138 31 292 12 154 23 305 26 335 10 125 16 210 20 300 4 91 48 607 60 718 l6
52 -180 0 c-166 0 -181 -1 -181 -17 0 -10 -23 -245 -51 -523 -47 -477 -50
-529 -59 -945 -6 -242 -12 -469 -14 -505 -2 -36 -2 146 1 405 l4 470 49 515
c28 283 52 534 55 558 l6 42 -100 0 c-77 0 -101 -3 -101 -13 0 -7 -27 -240
-60 -518 -34 -277 -62 -515 -63 -528 -1 -14 -8 -26 -15 -29 -8 -2 -10 6 -7 30
2 18 7 73 9 122 5 88 37 518 56 754 6 68 10 136 10 153 l0 29 -85 0 -85 0 -1
-67 c-1 -38 -5 -99 -9 -138 -6 -49 -7 -29 -3 68 l5 137 -4931 0 -4931 0 0
-1400z m9851 1083 c-10 -17 -10 -16 -11 3 0 23 13 41 18 25 2 -6 -1 -18 -7
-28z m-1 -143 c0 -5 -5 -10 -11 -10 -5 0 -7 5 -4 10 3 6 8 10 11 10 2 0 4 -4
4 -10z m-13 -52 c-3 -7 -5 -2 -5 12 0 14 2 19 5 13 2 -7 2 -19 0 -25z m139
-613 c-2 -35 -11 -39 -12 -4 -1 16 2 29 6 29 4 0 6 -11 6 -25z m-9 -80 c0 -8
-4 -12 -9 -9 -5 3 -6 10 -3 15 9 13 12 11 12 -6z m-6 -48 c-10 -9 -11 -8 -5 6
3 10 9 15 12 12 3 -3 0 -11 -7 -18z m238 -862 c0 -30 -4 -55 -8 -55 -6 0 -7
24 -3 88 4 44 11 21 11 -33z m-12 -102 c-3 -10 -5 -4 -5 12 0 17 2 24 5 18 2
-7 2 -21 0 -30z"/>
<path d="M10056 2778 c-3 -13 -16 -185 -31 -383 -14 -198 -28 -380 -31 -405
-3 -25 -3 -42 1 -38 3 3 26 179 50 390 25 210 47 400 50 421 5 32 3 37 -15 37
-12 0 -21 -8 -24 -22z"/>
<path d="M10700 2788 c0 -7 -11 -130 -24 -273 -14 -143 -27 -303 -31 -355 -3
-52 -8 -104 -10 -115 -4 -17 15 -33 108 -89 62 -37 164 -93 227 -124 l115 -57
122 0 c67 0 126 5 132 10 5 6 12 227 16 513 l7 502 -331 0 c-258 0 -331 -3
-331 -12z"/>
<path d="M11379 2558 c0 -134 -2 -270 -4 -303 -1 -33 -3 -155 -4 -272 l-1
-212 -56 -11 c-31 -7 -95 -10 -143 -8 -81 3 -94 7 -192 54 -58 28 -159 84
-224 123 -65 39 -119 70 -121 68 -3 -4 -13 -117 -39 -462 -13 -181 -27 -352
-30 -379 l-6 -49 278 7 c153 3 321 9 373 11 52 3 196 7 320 10 322 7 577 15
715 20 66 2 233 7 371 11 l252 7 6 -84 c3 -46 10 -273 16 -504 6 -231 13 -457
16 -503 l6 -82 119 1 c70 0 117 5 113 10 -3 5 -10 6 -16 3 -7 -4 -8 -2 -4 5 4
6 12 9 17 6 5 -4 9 5 9 19 0 20 -5 26 -22 27 -17 0 -19 2 -8 7 24 11 20 84 -5
100 -19 12 -19 12 -1 10 13 -2 20 4 21 19 1 12 -2 20 -6 17 -4 -2 -10 0 -14 6
-3 5 0 10 7 10 9 0 13 14 13 45 0 25 -4 45 -10 45 -5 0 -3 5 5 10 17 11 4 41
-21 48 -9 2 -8 -1 4 -11 23 -19 22 -30 -3 -17 -17 9 -20 8 -21 -12 -1 -21 -2
-21 -6 -3 -3 11 -10 27 -17 35 -10 13 -9 13 7 1 16 -12 17 -11 13 10 -3 13 -5
27 -5 32 -1 4 -6 7 -12 7 -5 0 -8 -4 -4 -9 3 -5 1 -12 -4 -15 -5 -4 -8 2 -6
11 1 10 9 17 18 17 8 -1 20 9 26 23 9 19 8 25 -4 29 -8 4 -15 15 -15 26 0 10
5 16 10 13 6 -4 7 -11 4 -17 -4 -7 -2 -8 5 -4 9 6 9 11 -1 23 -10 12 -9 18 7
30 19 14 19 14 1 11 -10 -2 -21 3 -24 11 -3 8 0 11 6 7 6 -3 14 -1 18 5 5 8 3
9 -6 4 -9 -5 -11 -1 -6 16 3 13 3 18 0 12 -3 -7 -10 -13 -15 -13 -6 0 -7 5 -4
10 3 6 2 10 -2 10 -5 0 -14 -9 -21 -20 -7 -11 -17 -20 -23 -20 -6 0 -3 7 5 16
20 20 21 51 1 51 -18 0 -20 -14 -3 -19 6 -2 8 -9 4 -16 -3 -6 -14 -8 -22 -5
-11 4 -12 8 -5 13 8 4 4 16 -11 36 -20 27 -20 28 -1 11 19 -16 21 -16 27 -2 9
24 7 35 -5 35 -5 0 -7 -4 -4 -10 4 -6 -1 -7 -11 -3 -11 4 -13 8 -6 11 8 2 9 9
3 21 -13 24 0 40 24 30 19 -7 19 -8 -2 -8 -16 -1 -21 -5 -16 -17 4 -10 14 -14
29 -11 13 2 24 0 24 -4 0 -5 -5 -9 -11 -9 -5 0 -8 -4 -4 -9 3 -5 1 -12 -5 -16
-18 -11 -11 -21 18 -22 15 0 19 1 10 4 -10 2 -18 8 -18 13 0 5 8 7 18 4 11 -4
13 -3 5 3 -6 4 -11 17 -10 28 2 16 -3 19 -23 18 l-25 -3 23 12 c12 6 22 15 22
20 0 5 -4 7 -9 4 -5 -3 -8 8 -7 25 1 23 -4 32 -16 34 -12 2 -15 -2 -11 -13 4
-10 4 -15 2 -12 -2 3 -15 18 -29 34 -14 16 -18 25 -10 20 21 -12 60 -17 41 -5
-11 7 -11 9 0 14 11 4 11 6 1 6 -7 1 -10 6 -6 13 4 6 3 8 -3 5 -12 -8 -22 12
-16 30 2 7 12 9 21 6 13 -4 12 -2 -3 10 -23 19 -35 21 -35 6 0 -5 5 -7 12 -3
7 5 8 3 4 -5 -5 -7 -11 -10 -14 -7 -3 3 -15 -2 -26 -11 -21 -18 -21 -18 -3 3
9 11 17 26 17 32 0 7 6 12 14 12 21 0 40 26 25 36 -7 4 -9 3 -5 -4 9 -15 -30
-25 -51 -13 -15 9 -13 10 10 7 15 -3 27 0 27 5 0 5 -4 9 -10 9 -5 0 -10 4 -10
10 0 5 6 7 14 4 8 -3 23 -1 33 5 15 9 12 10 -12 4 -28 -6 -29 -5 -15 13 8 10
20 22 25 26 15 11 -4 9 -26 -2 -24 -13 -25 -2 -1 17 13 10 13 13 2 11 -10 -2
-15 5 -14 19 0 13 -3 23 -8 23 -5 0 -6 5 -2 12 5 7 11 5 21 -7 7 -11 13 -14
13 -8 0 6 -7 16 -15 23 -8 7 -15 9 -15 6 0 -4 -9 -2 -20 4 -17 9 -20 8 -21
-12 -1 -21 -2 -21 -6 -3 -3 11 -10 27 -17 35 -10 13 -9 13 7 1 16 -12 17 -11
13 10 -3 13 -5 27 -5 32 -1 4 -6 7 -12 7 -5 0 -8 -4 -4 -9 3 -5 1 -12 -4 -15
-5 -4 -8 2 -6 11 1 10 9 17 18 17 8 -1 20 9 26 23 9 19 8 25 -4 29 -8 4 -15
15 -15 26 0 10 5 16 10 13 6 -4 7 -11 4 -17 -4 -7 -2 -8 5 -4 9 6 9 11 -1 23
-10 12 -9 18 7 30 19 14 19 14 1 11 -10 -2 -21 3 -24 11 -3 8 0 11 6 7 6 -3
14 -1 18 5 4 8 3 9 -4 5 -15 -9 -15 -1 -1 27 9 20 9 20 -4 5 -15 -19 -32 -25
-22 -8 3 6 1 10 -5 10 -6 0 -8 5 -4 12 4 7 3 8 -4 4 -7 -4 -12 -2 -12 3 0 12
-22 10 -31 -2 -3 -5 -9 -1 -12 8 -4 9 -3 14 2 11 5 -3 12 1 15 10 9 23 7 34
-5 34 -5 0 -7 -4 -4 -10 4 -6 -1 -7 -11 -3 -11 4 -13 8 -6 11 7 2 10 7 8 10
-2 4 9 7 25 7 16 0 29 -3 29 -7 0 -5 -5 -8 -11 -8 -5 0 -8 -4 -4 -9 3 -5 1
-12 -5 -16 -18 -11 -11 -21 18 -22 15 0 19 1 10 4 -10 2 -18 8 -18 13 0 5 8 7
18 4 11 -4 13 -3 5 3 -6 4 -11 17 -10 28 2 16 -3 19 -23 18 l-25 -3 23 12 c12
6 22 15 22 20 0 5 -4 7 -9 4 -9 -6 -6 67 3 83 4 5 1 13 -6 17 -7 4 -10 4 -6
-1 10 -11 -11 -47 -22 -40 -6 4 -7 -2 -3 -12 3 -10 4 -16 2 -13 -2 3 -15 18
-29 34 -14 16 -18 25 -10 20 8 -4 24 -10 35 -11 16 -3 17 -1 5 7 -13 9 -13 10
0 10 13 0 13 2 1 9 -12 7 -11 10 5 14 17 4 17 4 -1 3 -11 -1 -19 -7 -17 -14 1
-6 -2 -12 -8 -12 -5 0 -10 4 -10 9 0 5 -8 8 -17 6 -10 -1 -13 0 -6 2 7 2 9 12
6 21 -4 13 -2 12 11 -3 12 -14 16 -16 15 -5 -3 31 1 39 19 34 14 -5 14 -4 2 4
-10 8 -18 8 -27 0 -7 -6 -13 -7 -13 -3 0 5 -10 0 -22 -11 l-23 -19 19 22 c10
13 22 20 27 18 4 -3 11 0 14 6 4 5 13 8 19 6 7 -3 13 0 13 6 0 7 -18 13 -39
15 -30 2 -38 -1 -32 -10 5 -9 3 -9 -10 1 -14 12 -109 13 -620 7 l-604 -7 -6
93 c-6 95 -11 251 -22 696 l-7 252 -74 0 -73 0 -1 -242z m1458 -804 c-3 -3
-12 -4 -19 -1 -8 3 -5 6 6 6 11 1 17 -2 13 -5z m36 -174 c-4 -5 -19 -2 -33 6
-23 14 -23 14 -2 9 16 -5 24 -1 29 12 7 17 8 17 11 -1 2 -10 0 -22 -5 -26z m7
-25 c0 -1 -11 -5 -24 -7 -16 -3 -23 -1 -19 7 3 10 43 10 43 0z m29 -164 c-6
-1 -3 -12 7 -22 11 -12 13 -19 5 -19 -7 0 -9 -4 -6 -10 3 -5 1 -10 -5 -10 -6
0 -9 -4 -6 -9 3 -5 -1 -12 -10 -15 -9 -4 -13 -2 -8 5 4 6 0 16 -7 21 -11 8
-10 9 4 4 19 -6 20 -5 11 18 -3 9 -14 16 -23 17 -11 0 -9 3 7 9 12 5 22 15 22
22 0 9 -3 9 -12 0 -20 -20 -29 -14 -11 7 15 19 17 19 29 3 8 -10 9 -18 3 -21z
m24 -128 c-8 -20 -23 -16 -17 5 4 12 0 10 -15 -7 -12 -13 -21 -19 -21 -14 0 5
3 13 8 17 4 4 8 12 8 17 1 5 2 11 3 14 0 3 10 0 20 -7 10 -6 17 -18 14 -25z
m23 -143 c-1 -16 3 -32 8 -35 7 -3 7 -7 -2 -11 -6 -3 -10 -9 -8 -13 3 -4 -3
-12 -13 -18 -14 -9 -18 -8 -18 3 0 7 5 10 10 7 6 -4 8 1 4 11 -4 9 -3 15 2 12
5 -3 9 6 9 20 0 24 -1 24 -22 7 -21 -18 -21 -18 -3 3 9 11 17 26 17 32 0 7 4
12 9 12 5 0 8 -13 7 -30z m24 -85 c-7 -8 -17 -12 -23 -8 -6 4 -3 9 9 14 27 11
28 11 14 -6z m-25 -25 c3 -6 -1 -7 -9 -4 -18 7 -21 14 -7 14 6 0 13 -4 16 -10z
m-1 -70 c-6 -6 -10 -3 -10 10 0 13 4 16 10 10 7 -7 7 -13 0 -20z m49 -80 c-3
-3 -8 0 -10 6 -2 7 -12 11 -21 9 -9 -1 -12 0 -5 2 7 2 9 12 6 21 -4 10 3 6 14
-8 12 -14 19 -27 16 -30z m30 -80 c-4 -5 -19 -2 -33 6 -23 14 -23 14 -2 9 16
-5 24 -1 29 12 7 17 8 17 11 -1 2 -10 0 -22 -5 -26z m41 -191 c-3 -5 0 -16 6
-24 10 -11 10 -15 1 -15 -7 0 -9 -4 -6 -10 3 -5 1 -10 -5 -10 -6 0 -9 -4 -6
-9 3 -5 -1 -12 -10 -15 -9 -4 -13 -2 -8 5 4 6 0 16 -7 21 -11 7 -9 8 5 4 14
-5 17 -2 12 10 -3 8 -6 18 -6 20 0 2 -8 4 -17 5 -14 0 -13 2 5 9 12 5 22 14
22 20 0 6 5 8 10 5 6 -4 8 -11 4 -16z m19 -126 c-8 -20 -23 -16 -17 5 4 12 0
10 -15 -7 -12 -13 -21 -19 -21 -14 0 5 3 13 8 17 4 4 8 12 8 17 1 5 2 11 3 14
0 3 10 0 20 -7 10 -6 17 -18 14 -25z m23 -143 c-1 -16 3 -32 8 -34 7 -3 5 -9
-4 -15 -8 -6 -10 -11 -5 -11 6 0 2 -5 -8 -11 -18 -10 -18 -12 -1 -30 16 -18
16 -19 1 -13 -9 3 -17 9 -18 13 0 3 -2 14 -4 24 -2 10 1 14 8 10 7 -4 8 0 4
11 -4 9 -3 15 2 12 5 -3 9 6 9 20 0 24 -1 24 -22 7 -21 -18 -21 -18 -3 3 9 11
17 26 17 32 0 7 4 12 9 12 5 0 8 -13 7 -30z m-49 5 c0 -8 -4 -12 -9 -9 -5 3
-6 10 -3 15 9 13 12 11 12 -6z m47 -185 c-6 -6 -10 -3 -10 10 0 13 4 16 10 10
7 -7 7 -13 0 -20z m16 -19 c0 -5 -7 -12 -16 -15 -14 -5 -15 -4 -4 9 14 17 20
19 20 6z"/>
<path d="M12896 1367 c3 -10 9 -15 12 -12 3 3 0 11 -7 18 -10 9 -11 8 -5 -6z"/>
<path d="M13056 567 c3 -10 9 -15 12 -12 3 3 0 11 -7 18 -10 9 -11 8 -5 -6z"/>
<path d="M11550 2713 c1 -67 27 -920 30 -930 0 -4 1153 14 1218 19 6 1 12 5
12 9 0 5 12 4 26 -2 15 -5 29 -7 32 -4 3 3 -1 5 -9 5 -12 0 -11 2 1 10 11 8 7
9 -15 4 -28 -7 -29 -6 -15 12 8 10 20 22 25 26 15 11 -7 10 -25 -2 -9 -6 -17
-5 -22 3 -5 9 -11 7 -21 -7 -11 -15 -16 -16 -22 -6 -6 9 -4 11 5 5 10 -6 12
-4 7 9 -4 9 -3 15 2 12 5 -3 9 6 9 20 0 24 -1 24 -22 7 -21 -18 -21 -18 -3 3
9 11 17 26 17 32 0 7 4 12 9 12 4 0 8 -12 7 -27 -1 -36 20 -61 37 -44 9 10 9
12 -3 9 -10 -2 -15 4 -14 20 0 12 -3 22 -8 22 -5 0 -6 5 -2 12 5 7 11 5 21 -7
7 -11 13 -14 13 -8 0 6 -7 16 -15 23 -8 7 -15 9 -15 6 0 -4 -9 -2 -20 4 -17 9
-20 8 -21 -12 -1 -21 -2 -21 -6 -3 -3 11 -10 27 -17 35 -10 13 -9 13 7 1 16
-12 17 -11 13 10 -3 13 -5 27 -5 32 -1 4 -6 7 -12 7 -5 0 -8 -4 -4 -9 3 -5 1
-12 -4 -15 -5 -4 -8 2 -6 11 1 10 10 17 19 17 9 -1 16 2 16 7 0 5 -4 9 -10 9
-5 0 -6 8 -3 18 6 15 4 15 -9 4 -14 -11 -16 -10 -13 5 1 10 8 17 14 16 6 -2
11 6 11 18 0 11 5 17 10 14 7 -4 7 -13 0 -26 -6 -10 -7 -19 -2 -19 5 0 8 -16
6 -35 -3 -38 11 -54 29 -35 9 10 9 14 0 17 -7 3 -13 9 -13 15 0 6 7 8 14 5 10
-4 13 -1 9 9 -4 10 -9 12 -18 4 -9 -7 -12 -3 -13 20 0 17 4 30 9 30 6 0 8 -4
4 -9 -3 -5 -1 -13 5 -16 6 -4 9 -1 8 7 -2 7 3 12 10 10 8 -1 11 2 7 8 -3 6
-10 8 -14 5 -5 -2 -17 2 -27 10 -19 15 -19 15 1 31 19 15 19 15 1 12 -10 -2
-21 3 -24 11 -3 8 0 11 6 7 6 -3 14 -1 18 5 4 8 3 9 -4 5 -15 -9 -15 -1 -1 27
l12 22 -20 -20 c-11 -11 -19 -23 -16 -27 2 -5 0 -8 -5 -8 -12 0 -12 -32 1 -47
6 -9 6 -13 -2 -13 -7 0 -10 -4 -7 -9 3 -5 -1 -12 -10 -15 -9 -4 -13 -2 -8 5 4
6 0 16 -7 21 -11 8 -10 9 4 4 28 -9 16 26 -13 37 -13 4 -12 6 1 6 18 1 56 51
40 51 -6 0 -15 -8 -20 -17 -6 -10 -11 -13 -11 -6 0 6 4 14 10 18 12 7 2 35
-12 32 -15 -3 -19 15 -9 32 8 12 12 13 25 1 9 -7 19 -10 23 -6 3 3 1 6 -5 6
-7 0 -11 10 -9 23 2 18 -2 21 -23 19 -18 -2 -21 0 -11 6 11 8 11 11 0 16 -8 3
-4 3 9 0 13 -3 22 -1 22 6 0 6 -4 9 -9 6 -9 -6 -6 67 3 83 4 5 1 13 -6 17 -7
4 -10 4 -6 -1 10 -11 -11 -47 -22 -40 -6 4 -7 -2 -3 -12 3 -10 4 -16 2 -13 -2
3 -15 18 -29 35 -14 16 -18 24 -9 17 9 -6 19 -9 22 -6 9 9 -16 31 -33 29 -8
-1 -10 0 -3 2 7 2 9 12 6 21 -4 13 -2 13 9 -2 15 -19 16 -19 16 6 0 26 -11 30
-38 13 -13 -8 -13 -7 -1 8 7 9 17 15 21 12 5 -3 12 0 15 6 4 5 13 8 19 6 7 -3
13 1 13 8 0 8 -7 11 -16 7 -14 -5 -14 -3 -2 11 7 9 10 17 5 17 -5 0 -2 5 6 10
13 9 13 10 0 10 -13 0 -13 1 0 10 11 8 7 9 -15 4 -28 -7 -29 -6 -15 12 8 10
20 22 25 26 15 11 -7 10 -25 -2 -9 -6 -17 -5 -22 3 -5 9 -11 7 -21 -7 -11 -15
-16 -16 -22 -6 -6 9 -4 11 5 5 10 -6 12 -4 7 9 -4 9 -3 15 2 12 5 -3 9 6 9 20
0 24 -1 24 -22 7 -21 -18 -21 -18 -3 3 9 11 17 26 17 32 0 7 4 12 8 12 4 0 8
-12 7 -27 -1 -36 21 -61 38 -44 9 10 9 12 -3 9 -10 -2 -15 4 -14 20 0 12 -3
22 -8 22 -5 0 -6 5 -2 12 5 7 11 5 21 -7 7 -11 13 -15 13 -10 0 5 -7 17 -16
27 -14 15 -15 20 -3 35 12 16 12 17 -1 6 -10 -7 -21 -8 -30 -3 -8 5 -254 9
-547 10 l-533 1 0 -88z m1086 56 c19 -22 19 -22 -3 -10 -13 6 -23 16 -23 21 0
15 5 12 26 -11z m-29 -31 c-3 -8 -6 -5 -6 6 -1 11 2 17 5 13 3 -3 4 -12 1 -19z
m53 -103 c-10 -12 -9 -16 6 -22 11 -5 20 -13 21 -20 4 -17 -33 -26 -54 -14
-15 9 -13 10 10 7 32 -6 33 -2 7 27 -19 20 -20 22 -3 29 26 10 27 9 13 -7z
m-25 -25 c3 -6 -1 -7 -9 -4 -18 7 -21 14 -7 14 6 0 13 -4 16 -10z m42 -56 c-3
-3 -12 -4 -19 -1 -8 3 -5 6 6 6 11 1 17 -2 13 -5z m36 -174 c-4 -5 -19 -2 -33
6 -23 14 -23 14 -2 9 16 -5 24 -1 29 12 7 17 8 17 11 -1 2 -10 0 -22 -5 -26z
m-32 -33 c-10 -9 -11 -8 -5 6 3 10 9 15 12 12 3 -3 0 -11 -7 -18z m-503 -38
c119 -23 218 -42 219 -43 3 -2 -77 -439 -80 -443 -1 -1 -34 7 -72 18 -90 25
-92 24 -100 -11 -4 -16 -10 -30 -13 -30 -21 -1 -278 44 -284 49 -4 3 9 94 28
201 50 286 53 300 70 300 8 0 113 -19 232 -41z m518 -4 c1 -9 -4 -11 -14 -7
-10 4 -12 7 -4 10 7 2 9 9 5 15 -3 7 -2 8 2 4 5 -4 10 -14 11 -22z m69 -145
c3 -5 1 -10 -4 -10 -6 0 -11 5 -11 10 0 6 2 10 4 10 3 0 8 -4 11 -10z m30
-140 c3 -5 1 -10 -4 -10 -6 0 -11 5 -11 10 0 6 2 10 4 10 3 0 8 -4 11 -10z
m25 -185 c-7 -8 -17 -12 -23 -8 -6 4 -3 9 9 14 27 11 28 11 14 -6z"/>
<path d="M11945 2308 c-11 -52 -75 -413 -75 -428 0 -13 22 -20 108 -33 139
-22 138 -22 151 13 5 17 14 30 18 30 4 0 39 -9 77 -20 38 -11 71 -18 73 -17 4
5 73 390 70 393 -1 1 -87 18 -192 38 -104 21 -198 40 -207 42 -12 4 -19 -2
-23 -18z"/>
<path d="M12687 2529 c7 -7 15 -10 18 -7 3 3 -2 9 -12 12 -14 6 -15 5 -6 -5z"/>
<path d="M12724 2521 c-5 -5 -18 -11 -29 -14 l-20 -5 20 -1 c22 -1 52 15 44
23 -3 3 -10 2 -15 -3z"/>
<path d="M12685 2481 c-3 -5 -1 -13 5 -16 8 -5 7 -11 -1 -21 -10 -12 -9 -13 5
-8 19 7 22 34 4 35 -7 1 -2 5 12 9 23 7 23 8 3 9 -12 1 -24 -3 -28 -8z"/>
<path d="M12763 2315 c0 -8 4 -12 9 -9 5 3 6 10 3 15 -9 13 -12 11 -12 -6z"/>
<path d="M12717 2284 c-9 -10 -9 -24 1 -23 18 3 33 -2 28 -9 -3 -5 1 -9 8 -9
8 0 12 6 9 14 -3 7 -11 13 -18 13 -7 0 -15 5 -17 11 -2 5 -7 7 -11 3z"/>
<path d="M12773 2275 c0 -8 4 -12 9 -9 5 3 6 10 3 15 -9 13 -12 11 -12 -6z"/>
<path d="M12822 2015 c4 -4 3 -14 -3 -21 -8 -10 -16 -11 -33 -3 -20 11 -20 11
-3 -7 17 -18 18 -18 38 3 17 16 18 22 8 28 -8 5 -11 5 -7 0z"/>
<path d="M12879 1713 c-13 -16 -12 -17 4 -4 16 13 21 21 13 21 -2 0 -10 -8
-17 -17z"/>
<path d="M12923 1515 c0 -8 4 -12 9 -9 5 3 6 10 3 15 -9 13 -12 11 -12 -6z"/>
<path d="M12933 1475 c0 -8 4 -12 9 -9 5 3 6 10 3 15 -9 13 -12 11 -12 -6z"/>
<path d="M12939 1237 c-8 -13 -3 -49 8 -59 11 -9 18 -7 35 9 15 16 17 22 7 28
-7 5 -10 4 -6 -2 9 -15 -16 -34 -32 -24 -10 6 -9 10 3 14 20 8 21 23 1 31 -8
3 -16 4 -16 3z m16 -17 c3 -5 1 -10 -4 -10 -6 0 -11 5 -11 10 0 6 2 10 4 10 3
0 8 -4 11 -10z"/>
<path d="M12570 1139 c-151 -4 -430 -9 -620 -13 -190 -4 -358 -9 -375 -11 -16
-2 -208 -7 -426 -11 -217 -4 -411 -8 -430 -9 -19 -2 -62 -3 -96 -4 l-63 -1 0
-545 0 -545 1161 0 1161 0 -7 233 c-4 127 -13 385 -19 572 l-11 340 -275 -6z
m-260 -249 l13 -130 103 0 103 0 5 -42 c3 -24 7 -64 9 -90 l4 -46 -41 -6 c-22
-3 -71 -8 -108 -12 l-68 -6 0 -62 c0 -33 -5 -68 -10 -76 -7 -12 -68 -18 -332
-31 -178 -9 -324 -15 -326 -14 -4 3 -55 615 -51 619 4 5 420 22 585 24 l102 2
12 -130z"/>
<path d="M11890 988 c-140 -5 -256 -11 -259 -13 -4 -4 47 -577 51 -580 2 -1
68 2 148 7 80 4 216 11 302 16 87 4 160 11 164 15 4 3 9 37 12 76 l5 69 56 6
c31 4 78 9 105 12 l49 6 -7 52 c-3 28 -6 59 -6 69 0 17 -8 18 -103 11 l-104
-7 -13 137 -13 136 -66 -2 c-36 0 -181 -5 -321 -10z"/>
<path d="M13015 961 c-3 -5 -2 -12 3 -15 5 -3 9 1 9 9 0 17 -3 19 -12 6z"/>
<path d="M13039 913 c-13 -16 -12 -17 4 -4 9 7 17 15 17 17 0 8 -8 3 -21 -13z"/>
<path d="M13043 855 c0 -8 4 -12 9 -9 5 3 6 10 3 15 -9 13 -12 11 -12 -6z"/>
<path d="M13083 715 c0 -8 4 -12 9 -9 5 3 6 10 3 15 -9 13 -12 11 -12 -6z"/>
<path d="M13121 674 c0 -11 3 -14 6 -6 3 7 2 16 -1 19 -3 4 -6 -2 -5 -13z"/>
<path d="M13099 437 c-1 -1 -3 -12 -4 -24 -2 -19 1 -21 16 -12 23 12 24 25 4
33 -8 3 -16 4 -16 3z m16 -17 c3 -5 1 -10 -4 -10 -6 0 -11 5 -11 10 0 6 2 10
4 10 3 0 8 -4 11 -10z"/>
<path d="M13160 325 c0 -8 4 -15 10 -15 5 0 7 7 4 15 -4 8 -8 15 -10 15 -2 0
-4 -7 -4 -15z"/>
<path d="M13199 113 c-13 -16 -12 -17 4 -4 9 7 17 15 17 17 0 8 -8 3 -21 -13z"/>
<path d="M13203 55 c0 -8 4 -12 9 -9 5 3 6 10 3 15 -9 13 -12 11 -12 -6z"/>
<path d="M13170 15 c0 -8 4 -15 10 -15 5 0 7 7 4 15 -8 19 -14 19 -14 0z"/>
<path d="M13196 17 c3 -10 9 -15 12 -12 3 3 0 11 -7 18 -10 9 -11 8 -5 -6z"/>
</g>
</svg>
