<?xml version="1.0" standalone="no"?>
<!DOCTYPE svg PUBLIC "-//W3C//DTD SVG 20010904//EN"
 "http://www.w3.org/TR/2001/REC-SVG-20010904/DTD/svg10.dtd">
<svg version="1.0" xmlns="http://www.w3.org/2000/svg"
 width="375.000000pt" height="300.000000pt" viewBox="0 0 375.000000 300.000000"
 preserveAspectRatio="xMidYMid meet">

<g transform="translate(0.000000,300.000000) scale(0.100000,-0.100000)"
fill="#000000" stroke="none">
<path d="M0 1500 l0 -1500 1875 0 1875 0 0 1053 -1 1052 -28 27 c-15 16 -28
22 -28 15 -1 -6 -4 -64 -7 -127 -3 -63 -8 -207 -11 -320 -3 -113 -10 -347 -15
-520 -5 -173 -10 -370 -11 -437 -1 -103 -3 -121 -16 -116 -13 5 -14 45 -9 302
3 163 7 516 8 785 l3 490 -120 21 -120 21 -254 -76 -253 -75 -28 -56 c-27 -53
-43 -68 -170 -169 -71 -56 -25 -6 60 65 60 50 82 76 100 118 l24 55 80 25 c45
14 161 50 260 82 174 55 180 56 240 46 147 -24 145 -25 152 4 7 28 2 38 -21
41 -9 1 -11 -4 -7 -14 3 -10 -6 -3 -20 13 -24 27 -25 32 -12 47 11 11 12 18 4
23 -6 3 -9 1 -8 -6 2 -7 -6 -14 -17 -16 -11 -1 -14 0 -7 3 28 13 8 21 -54 23
-57 2 -90 -6 -250 -59 -102 -34 -186 -60 -188 -59 -1 2 -54 168 -118 369
l-116 365 -76 3 c-54 2 -76 -1 -76 -9 0 -7 29 -103 64 -213 35 -111 80 -253
100 -316 35 -111 38 -116 101 -180 l66 -66 -238 -68 c-279 -79 -283 -80 -263
-68 8 5 112 38 230 72 118 35 218 66 222 69 4 4 -16 32 -45 62 -32 35 -58 74
-69 105 -9 27 -57 176 -108 332 l-91 282 -279 0 -279 0 108 -320 c59 -176 105
-320 101 -320 -3 0 -55 144 -114 320 l-109 320 -128 0 -129 0 11 -26 c5 -15 7
-29 5 -32 -3 -3 -8 3 -11 12 -3 9 -7 23 -10 31 -4 13 -111 15 -890 15 l-885 0
0 -1500z m1813 1410 c3 -11 1 -18 -4 -14 -5 3 -9 12 -9 20 0 20 7 17 13 -6z
m471 -609 c-6 -6 -11 1 -18 29 l-7 25 15 -25 c8 -14 12 -27 10 -29z m1313 -23
c-3 -8 -6 -5 -6 6 -1 11 2 17 5 13 3 -3 4 -12 1 -19z m133 -168 c8 -5 11 -10
5 -10 -5 0 -17 5 -25 10 -8 5 -10 10 -5 10 6 0 17 -5 25 -10z m-901 -3 c-2 -2
-55 -50 -117 -105 -62 -56 -116 -102 -120 -102 -4 0 34 38 83 85 50 47 86 85
80 85 -5 0 -61 -15 -123 -34 -63 -19 -110 -30 -105 -25 5 5 74 29 153 53 151
47 156 48 149 43z"/>
<path d="M2820 2993 c0 -4 45 -151 101 -328 55 -176 105 -334 110 -352 10 -30
12 -31 37 -22 115 45 346 119 371 119 19 0 34 7 40 18 7 14 6 19 -4 19 -8 0
-12 -5 -9 -11 3 -6 -1 -3 -10 7 -8 11 -12 26 -9 35 3 13 1 12 -12 -3 -16 -19
-16 -19 -10 8 5 18 3 27 -5 27 -6 0 -8 -4 -5 -10 3 -6 -1 -7 -10 -4 -14 6 -14
8 2 21 10 8 12 12 6 8 -7 -3 -13 -1 -13 4 0 6 5 11 12 11 6 0 9 2 6 5 -10 10
-38 -7 -31 -19 3 -6 -3 -2 -14 9 -11 11 -18 24 -15 29 2 4 8 2 13 -5 7 -12 10
-12 21 0 10 11 10 12 0 7 -7 -4 -15 -1 -18 9 -5 12 -9 13 -20 4 -12 -10 -13
-8 -8 6 6 14 4 16 -7 10 -8 -4 -11 -5 -7 0 8 8 -4 22 -42 48 -13 9 -19 17 -13
17 7 0 15 -4 18 -10 3 -5 12 -10 18 -10 7 0 -1 9 -16 19 -20 13 -25 20 -15 24
9 4 7 6 -4 6 -10 1 -18 6 -18 12 0 6 -7 9 -14 6 -10 -4 -13 -1 -9 8 3 8 10 12
17 8 6 -4 5 1 -3 10 -7 9 -20 17 -29 17 -8 0 -12 3 -8 7 3 4 -4 13 -16 21 -13
7 -15 11 -6 8 10 -3 20 0 24 7 4 7 4 9 -1 5 -4 -4 -16 -3 -26 3 -14 7 -19 6
-19 -3 0 -6 -6 -3 -14 7 -8 11 -12 25 -9 31 2 7 -1 15 -8 20 -8 4 -10 3 -5 -4
5 -8 2 -10 -8 -6 -9 3 -14 10 -11 14 3 5 -1 11 -7 14 -7 3 -3 3 10 0 13 -3 22
-1 22 6 0 6 -3 9 -8 7 -4 -3 -23 3 -42 14 -37 19 -34 27 3 8 19 -9 20 -8 7 3
-8 8 -21 20 -29 28 -11 12 -12 12 -6 1 5 -10 4 -12 -4 -7 -6 4 -9 11 -6 16 3
5 -3 18 -13 28 -16 16 -36 20 -121 21 -55 1 -101 -1 -101 -6z m210 -18 c11
-13 10 -14 -4 -9 -9 3 -16 10 -16 15 0 13 6 11 20 -6z m210 -241 c0 -8 -19
-13 -24 -6 -3 5 1 9 9 9 8 0 15 -2 15 -3z"/>
<path d="M3164 2842 c3 -5 1 -12 -6 -14 -8 -3 -9 -6 -1 -11 6 -4 13 0 17 8 3
8 0 17 -6 21 -6 4 -8 3 -4 -4z"/>
<path d="M3550 2325 c7 -8 16 -12 21 -9 13 8 1 24 -18 24 -13 0 -13 -3 -3 -15z"/>
<path d="M3615 2259 c-11 -17 1 -21 15 -4 8 9 8 15 2 15 -6 0 -14 -5 -17 -11z"/>
</g>
</svg>
